<svg width="20" height="20" viewBox="0 0 8 8" fill="none" xmlns="http://www.w3.org/2000/svg">
<path fill-rule="evenodd" clip-rule="evenodd" d="M6.94664 2.04061C6.68775 1.53807 6.34765 1.13832 5.92633 0.842639C5.50501 0.53934 5.02405 0.324873 4.48344 0.199239C3.94283 0.0659898 3.39594 0 2.84137 0H0V7.8566H2.92893C3.46954 7.8566 4.00121 7.78299 4.52659 7.63452C5.05197 7.4797 5.52151 7.24239 5.93648 6.92386C6.3578 6.59772 6.69537 6.18782 6.94664 5.69162C7.20552 5.18909 7.33496 4.59264 7.33496 3.90482C7.33496 3.16497 7.20552 2.54315 6.94664 2.04061ZM1.92005 6.25761V1.75254L5.53293 4.00508L1.92005 6.25761Z" fill="url(#paint0_linear_688_1900)"/>
<path d="M6 4L1.5 6.59808V1.40192L6 4Z" fill="white"/>
<defs>
<linearGradient id="paint0_linear_688_1900" x1="0.753807" y1="1.15228" x2="6.70552" y2="9.37944" gradientUnits="userSpaceOnUse">
<stop offset="0.01" stop-color="#6DF4F8"/>
<stop offset="1" stop-color="#2FADCA"/>
</linearGradient>
</defs>
</svg>
