<svg width="179" height="22" fill="none" xmlns="http://www.w3.org/2000/svg"><path fill-rule="evenodd" clip-rule="evenodd" d="M41.578 5.855c-.673-1.306-1.557-2.345-2.652-3.114-1.095-.788-2.346-1.346-3.75-1.672a17.763 17.763 0 0 0-4.27-.519h-7.385v20.42h7.613c1.405 0 2.787-.19 4.152-.576a11.119 11.119 0 0 0 3.665-1.848 9.307 9.307 0 0 0 2.626-3.202c.673-1.307 1.009-2.857 1.009-4.645 0-1.923-.336-3.539-1.01-4.845Zm-13.066 10.96V5.107l9.391 5.855-9.39 5.855Z" fill="url(#a)"/><path fill-rule="evenodd" clip-rule="evenodd" d="M60.481 20.622c1.326-.617 2.441-1.441 3.345-2.48l-3.434-3.23c-.442.617-1.029 1.115-1.758 1.501-.732.386-1.586.578-2.566.578a5.82 5.82 0 0 1-2.335-.462 5.665 5.665 0 0 1-1.847-1.27 6.224 6.224 0 0 1-1.185-1.99c-.287-.768-.432-1.615-.432-2.536 0-.92.145-1.731.432-2.48a5.94 5.94 0 0 1 1.21-1.99 5.414 5.414 0 0 1 1.848-1.295 5.802 5.802 0 0 1 2.395-.492 6.06 6.06 0 0 1 2.309.462A4.15 4.15 0 0 1 60.28 6.35l3.345-3.345c-.864-.98-1.999-1.722-3.404-2.22A11.862 11.862 0 0 0 55.982 0c-1.557 0-3.008.25-4.354.749-1.346.501-2.52 1.22-3.52 2.164-.999.923-1.787 2.048-2.364 3.374-.558 1.326-.838 2.807-.838 4.443 0 1.636.28 3.058.838 4.384a10.375 10.375 0 0 0 2.309 3.433c.98.944 2.134 1.673 3.46 2.194 1.346.518 2.807.778 4.384.778 1.731 0 3.258-.296 4.584-.893v-.004ZM13.356.548h-4.79L0 20.968h5.363l1.501-4.007h7.903l1.587 4.008h5.479L13.356.548ZM8.279 13.009 10.875 6l2.537 7.01H8.279Zm69.028-.779c1.326-.402 2.365-1.075 3.114-2.018.749-.943 1.125-2.104 1.125-3.49 0-1.174-.221-2.154-.663-2.942a5.323 5.323 0 0 0-1.788-1.903c-.732-.482-1.567-.818-2.51-1.01a12.765 12.765 0 0 0-2.857-.316H65.94v20.42h4.846v-8.104h1.672l4.414 8.105h5.769l-5.337-8.741h.003Zm-.98-4.152a2.085 2.085 0 0 1-.837.749 4.432 4.432 0 0 1-1.155.376 9.447 9.447 0 0 1-1.24.086H70.76v-4.76h2.625c.366 0 .739.03 1.125.086.402.056.759.171 1.069.346.326.155.587.386.778.693.211.287.317.672.317 1.154 0 .518-.116.943-.347 1.27Zm8.738-7.53v20.42h14.25v-4.212h-9.49v-4.238h8.48V8.566h-8.48V4.73h8.972V.548H85.065Zm28.367 0h-4.786l-8.566 20.42h5.363l1.501-4.007h7.903l1.587 4.008h5.482L113.432.548Zm-5.076 12.461L110.952 6l2.54 7.01h-5.136Zm17.33 7.96h4.935V4.759h5.769V.549h-16.47V4.76h5.766v16.209Zm32.53-14.709c-.557-1.325-1.336-2.45-2.335-3.374-.98-.923-2.154-1.636-3.52-2.134-1.365-.501-2.846-.749-4.443-.749-1.596 0-3.077.251-4.443.75-1.346.5-2.52 1.21-3.519 2.133-.98.924-1.752 2.049-2.306 3.375-.557 1.306-.838 2.777-.838 4.413 0 1.636.281 3.097.838 4.443a10.406 10.406 0 0 0 2.306 3.434c.999.943 2.173 1.672 3.519 2.193 1.366.518 2.847.779 4.443.779 1.597 0 3.078-.26 4.443-.779 1.366-.517 2.537-1.25 3.52-2.193a10.132 10.132 0 0 0 2.335-3.434c.558-1.346.838-2.827.838-4.443 0-1.616-.28-3.104-.838-4.413Zm-4.875 6.98a5.99 5.99 0 0 1-1.211 1.99 5.79 5.79 0 0 1-1.843 1.325c-.713.307-1.501.462-2.365.462-.865 0-1.656-.155-2.366-.462a5.757 5.757 0 0 1-1.843-1.326 6.226 6.226 0 0 1-1.185-1.989c-.29-.788-.432-1.642-.432-2.566 0-.923.136-1.712.403-2.48a5.707 5.707 0 0 1 1.21-1.963 5.437 5.437 0 0 1 1.844-1.296c.713-.327 1.501-.492 2.365-.492.864 0 1.653.165 2.365.492a5.074 5.074 0 0 1 1.844 1.296c.521.538.924 1.19 1.211 1.963.29.768.432 1.596.432 2.48 0 .884-.145 1.778-.432 2.566h.003Zm20.325-1.01c1.326-.402 2.365-1.075 3.114-2.018.749-.943 1.125-2.104 1.125-3.49 0-1.174-.221-2.154-.663-2.942a5.321 5.321 0 0 0-1.788-1.903c-.729-.482-1.567-.818-2.51-1.01a12.772 12.772 0 0 0-2.857-.316H162.3v20.42h4.845v-8.104h1.673l4.413 8.105H179l-5.337-8.741h.003Zm-.979-4.152a2.086 2.086 0 0 1-.838.749 4.386 4.386 0 0 1-1.155.376 9.4 9.4 0 0 1-1.24.086h-2.338v-4.76h2.625c.366 0 .742.03 1.125.086.402.056.759.171 1.069.346.326.155.587.386.778.693.211.287.317.672.317 1.154 0 .518-.116.943-.347 1.27h.004Z" fill="#fff"/><defs><linearGradient id="a" x1="25.478" y1="3.543" x2="40.951" y2="24.93" gradientUnits="userSpaceOnUse"><stop offset=".01" stop-color="#6DF4F8"/><stop offset="1" stop-color="#2FADCA"/></linearGradient></defs></svg>