<svg width="100" height="28" viewBox="0 0 394 108" fill="none" xmlns="http://www.w3.org/2000/svg">
<path fill-rule="evenodd" clip-rule="evenodd" d="M126.053 39.7399C124.013 35.7799 121.333 32.6299 118.013 30.2999C114.693 27.9099 110.903 26.2199 106.643 25.2299C102.383 24.1799 98.0735 23.6599 93.7035 23.6599H71.3135V85.5699H94.3935C98.6535 85.5699 102.843 84.9899 106.983 83.8199C111.123 82.5999 114.823 80.7299 118.093 78.2199C121.413 75.6499 124.073 72.4199 126.053 68.5099C128.093 64.5499 129.113 59.8499 129.113 54.4299C129.113 48.5999 128.093 43.6999 126.053 39.7399ZM86.4435 72.9699V37.4699L114.913 55.2199L86.4435 72.9699Z" fill="url(#paint0_linear_2122_80)"/>
<path fill-rule="evenodd" clip-rule="evenodd" d="M40.49 23.65H25.97L0 85.56H16.26L20.81 73.41H44.77L49.58 85.56H66.19L40.48 23.65H40.49ZM25.1 61.43L32.97 40.18L40.66 61.43H25.1Z" fill="white"/>
<path d="M207.538 86H192.857L193.209 41.9586H192.945L176.77 86H166.222L150.486 41.9586H150.223L150.574 86H136.421V23.7619H157.783L171.936 63.6716H172.287L185.825 23.7619H207.538V86ZM279.277 86H262.575L257.74 73.7809H233.653L229.082 86H212.731L238.84 23.7619H253.432L279.277 86ZM253.608 61.7377L245.872 40.3763L237.961 61.7377H253.608ZM342.088 86H322.484L299.365 57.3423H299.189V86H284.421V23.7619H299.189V49.0791H299.453L321.693 23.7619H340.505L313.694 52.4195L342.088 86ZM390.343 86H346.917V23.7619H388.761V36.5084H361.422V48.2H387.266V60.2433H361.422V73.1656H390.343V86Z" fill="white"/>
<defs>
<linearGradient id="paint0_linear_2122_80" x1="77.2535" y1="32.7399" x2="124.153" y2="97.5699" gradientUnits="userSpaceOnUse">
<stop offset="0.01" stop-color="#6DF4F8"/>
<stop offset="1" stop-color="#2FADCA"/>
</linearGradient>
</defs>
</svg>
